<svg width="458" height="500" viewBox="0 0 458 500" fill="none" xmlns="http://www.w3.org/2000/svg">
<g clip-path="url(#clip0_77_8)">
<path d="M312 109.5V85C312 60.3333 304.167 40 288.5 24C272.833 8 253 0 229 0C203 0 182.667 8.16667 168 24.5C153.333 40.8333 146 62.6667 146 90V97.5C146 98.8333 146.167 100 146.5 101L147 109.5C122.333 91.8333 100.167 83 80.5 83C65.1667 83 50.5 88.1667 36.5 98.5C23.1667 108.167 13.3333 120.833 7 136.5C2.33333 147.5 0 158.5 0 169.5C0 203.167 19.3333 228.833 58 246.5L65.5 250C21.8333 270 0 297 0 331C0 354 8 374.167 24 391.5C40 408.833 59 417.5 81 417.5C101 417.5 120.833 410.333 140.5 396L147 391C146.333 397.667 146 405.667 146 415C146 440 153.833 460.417 169.5 476.25C185.167 492.083 205 500 229 500C255.333 500 275.75 491.75 290.25 475.25C304.75 458.75 312 437.167 312 410.5V391C336.667 408.667 358.667 417.5 378 417.5C399.667 417.5 418.417 408.75 434.25 391.25C450.083 373.75 458 353.667 458 331C458 297 438.667 271.167 400 253.5L392.5 250C436.167 230 458 203.167 458 169.5C458 147.833 450.167 128 434.5 110C418.833 92 399.917 83 377.75 83C355.583 83 336 90 319 104L312 109.5ZM270 194C308.667 137.667 344.5 109.5 377.5 109.5C391.167 109.5 403.583 115.667 414.75 128C425.917 140.333 431.5 154.167 431.5 169.5C431.5 210.833 386.833 235.333 297.5 243V257.5C341.833 261.167 375.25 269.167 397.75 281.5C420.25 293.833 431.5 310.333 431.5 331C431.5 346 426.083 359.75 415.25 372.25C404.417 384.75 391.833 391 377.5 391C343.833 391 308 362.667 270 306L257 313.5C276 352.167 285.5 384.833 285.5 411.5C285.5 452.833 266.667 473.5 229 473.5C211 473.5 197 468 187 457C177.333 445.333 172.5 430.667 172.5 413C172.5 386.333 182 353.167 201 313.5L188 306C150 362.667 114.167 391 80.5 391C66.8333 391 54.4167 385.083 43.25 373.25C32.0833 361.417 26.5 347.333 26.5 331C26.5 289.667 71 265.167 160 257.5V243C71 235.667 26.5 211.167 26.5 169.5C26.5 154.833 31.8333 141.167 42.5 128.5C53.1667 115.833 65.8333 109.5 80.5 109.5C113.5 109.5 149.333 137.667 188 194L201 187C182 148 172.5 114.667 172.5 87C172.5 69.3333 177.333 54.6667 187 43C197 32 211 26.5 229 26.5C266.667 26.5 285.5 47 285.5 88C285.5 115 276 148 257 187L270 194Z" fill="#FFFDF7"/>
</g>
<defs>
<clipPath id="clip0_77_8">
<rect width="458" height="500" fill="white"/>
</clipPath>
</defs>
</svg>
